<svg width="1440" height="288" viewBox="0 0 1440 288" fill="none" xmlns="http://www.w3.org/2000/svg">
<mask id="mask0_7871_2777" style="mask-type:alpha" maskUnits="userSpaceOnUse" x="0" y="0" width="1440" height="288">
<rect y="0.612915" width="1440" height="287.27" fill="#D9D9D9"/>
</mask>
<g mask="url(#mask0_7871_2777)">
<path opacity="0.5" d="M-496.04 49.2656C-503.517 57.0016 -522.362 50.5072 -507.204 38.8554C-391.159 -66.2969 -275.216 -91.7016 -182.83 -60.5665C-58.8985 -18.7348 75.6852 133.693 195.418 174.092C239.46 188.991 288.008 173.137 361.957 109.721C369.434 101.985 389.509 110.581 374.248 122.328C251.853 225.379 135.705 259.188 36.9694 225.761C-99.458 179.727 -211.099 35.1307 -337.079 -7.4651C-374.873 -20.1674 -422.193 -14.055 -496.142 49.1701L-496.04 49.2656Z" stroke="#122223" stroke-linecap="round" stroke-dasharray="1 4"/>
<path opacity="0.5" d="M1075.63 162.43C1068.15 170.166 1049.31 163.671 1064.47 152.019C1180.51 46.8672 1296.46 21.4625 1388.84 52.5975C1512.77 94.4292 1647.36 246.857 1767.09 287.256C1811.13 302.155 1859.68 286.301 1933.63 222.885C1941.11 215.149 1961.18 223.745 1945.92 235.492C1823.52 338.543 1707.38 372.352 1608.64 338.925C1472.21 292.891 1360.57 148.295 1234.59 105.699C1196.8 92.9966 1149.48 99.109 1075.53 162.334L1075.63 162.43Z" stroke="#122223" stroke-linecap="round" stroke-dasharray="1 4"/>
</g>
</svg>
